<?xml version="1.0" encoding="UTF-8" standalone="no"?>
<!-- Generator: Adobe Illustrator 19.0.0, SVG Export Plug-In . SVG Version: 6.00 Build 0)  -->

<svg
   xmlns:dc="http://purl.org/dc/elements/1.1/"
   xmlns:cc="http://creativecommons.org/ns#"
   xmlns:rdf="http://www.w3.org/1999/02/22-rdf-syntax-ns#"
   xmlns:svg="http://www.w3.org/2000/svg"
   xmlns="http://www.w3.org/2000/svg"
   xmlns:sodipodi="http://sodipodi.sourceforge.net/DTD/sodipodi-0.dtd"
   xmlns:inkscape="http://www.inkscape.org/namespaces/inkscape"
   version="1.1"
   id="Layer_1"
   x="0px"
   y="0px"
   viewBox="0 0 492.00012 408.65201"
   xml:space="preserve"
   sodipodi:docname="left-arrow.svg"
   width="492.00012"
   height="408.65201"
   inkscape:version="0.92.2 2405546, 2018-03-11"><metadata
   id="metadata271"><rdf:RDF><cc:Work
       rdf:about=""><dc:format>image/svg+xml</dc:format><dc:type
         rdf:resource="http://purl.org/dc/dcmitype/StillImage" /><dc:title></dc:title></cc:Work></rdf:RDF></metadata><defs
   id="defs269" /><sodipodi:namedview
   pagecolor="#ffffff"
   bordercolor="#666666"
   borderopacity="1"
   objecttolerance="10"
   gridtolerance="10"
   guidetolerance="10"
   inkscape:pageopacity="0"
   inkscape:pageshadow="2"
   inkscape:window-width="1890"
   inkscape:window-height="996"
   id="namedview267"
   showgrid="false"
   fit-margin-top="0"
   fit-margin-left="0"
   fit-margin-right="0"
   fit-margin-bottom="0"
   inkscape:zoom="1.6280488"
   inkscape:cx="246.00011"
   inkscape:cy="204.326"
   inkscape:window-x="1935"
   inkscape:window-y="39"
   inkscape:window-maximized="0"
   inkscape:current-layer="Layer_1" />
<g
   id="g234"
   transform="translate(1.0716546e-4,-41.674)">
	<g
   id="g232">
		<path
   d="m 464.344,207.418 0.768,0.168 H 135.888 L 239.384,103.862 c 5.068,-5.064 7.848,-11.924 7.848,-19.124 0,-7.2 -2.78,-14.012 -7.848,-19.088 L 223.28,49.538 c -5.064,-5.064 -11.812,-7.864 -19.008,-7.864 -7.2,0 -13.952,2.78 -19.016,7.844 L 7.844,226.914 C 2.76,231.998 -0.02,238.77 0,245.974 c -0.02,7.244 2.76,14.02 7.844,19.096 l 177.412,177.412 c 5.064,5.06 11.812,7.844 19.016,7.844 7.196,0 13.944,-2.788 19.008,-7.844 l 16.104,-16.112 c 5.068,-5.056 7.848,-11.808 7.848,-19.008 0,-7.196 -2.78,-13.592 -7.848,-18.652 L 134.72,284.406 h 329.992 c 14.828,0 27.288,-12.78 27.288,-27.6 v -22.788 c 0,-14.82 -12.828,-26.6 -27.656,-26.6 z"
   id="path230"
   inkscape:connector-curvature="0" />
	</g>
</g>
<g
   id="g236"
   transform="translate(1.0716546e-4,-41.674)">
</g>
<g
   id="g238"
   transform="translate(1.0716546e-4,-41.674)">
</g>
<g
   id="g240"
   transform="translate(1.0716546e-4,-41.674)">
</g>
<g
   id="g242"
   transform="translate(1.0716546e-4,-41.674)">
</g>
<g
   id="g244"
   transform="translate(1.0716546e-4,-41.674)">
</g>
<g
   id="g246"
   transform="translate(1.0716546e-4,-41.674)">
</g>
<g
   id="g248"
   transform="translate(1.0716546e-4,-41.674)">
</g>
<g
   id="g250"
   transform="translate(1.0716546e-4,-41.674)">
</g>
<g
   id="g252"
   transform="translate(1.0716546e-4,-41.674)">
</g>
<g
   id="g254"
   transform="translate(1.0716546e-4,-41.674)">
</g>
<g
   id="g256"
   transform="translate(1.0716546e-4,-41.674)">
</g>
<g
   id="g258"
   transform="translate(1.0716546e-4,-41.674)">
</g>
<g
   id="g260"
   transform="translate(1.0716546e-4,-41.674)">
</g>
<g
   id="g262"
   transform="translate(1.0716546e-4,-41.674)">
</g>
<g
   id="g264"
   transform="translate(1.0716546e-4,-41.674)">
</g>
</svg>